<svg width="22" height="23" viewBox="0 0 22 23" fill="none" xmlns="http://www.w3.org/2000/svg">
<path d="M11 0.9375C8.91094 0.9375 6.86879 1.55698 5.13179 2.7176C3.3948 3.87822 2.04098 5.52786 1.24153 7.45791C0.442077 9.38795 0.232904 11.5117 0.64046 13.5606C1.04802 15.6096 2.054 17.4916 3.53119 18.9688C5.00838 20.446 6.89044 21.452 8.93936 21.8595C10.9883 22.2671 13.1121 22.0579 15.0421 21.2585C16.9721 20.459 18.6218 19.1052 19.7824 17.3682C20.943 15.6312 21.5625 13.5891 21.5625 11.5C21.5571 8.7003 20.4426 6.0168 18.4629 4.03711C16.4832 2.05742 13.7997 0.942869 11 0.9375ZM16.0273 9.65156L10.0758 15.3391C9.92192 15.4838 9.71828 15.5638 9.50704 15.5625C9.40379 15.564 9.30127 15.545 9.20539 15.5066C9.10952 15.4683 9.02219 15.4113 8.94844 15.3391L5.97266 12.4953C5.89012 12.4233 5.823 12.3353 5.77532 12.2367C5.72764 12.1381 5.7004 12.0309 5.69522 11.9215C5.69004 11.8121 5.70704 11.7027 5.7452 11.6001C5.78335 11.4974 5.84187 11.4035 5.91724 11.324C5.99261 11.2445 6.08328 11.1811 6.18378 11.1375C6.28429 11.094 6.39256 11.0712 6.50209 11.0706C6.61163 11.0699 6.72016 11.0915 6.82116 11.1338C6.92217 11.1762 7.01356 11.2386 7.08985 11.3172L9.50704 13.6227L14.9102 8.47344C15.0681 8.3356 15.2733 8.26418 15.4827 8.27409C15.6921 8.28399 15.8896 8.37447 16.0339 8.5266C16.1781 8.67873 16.258 8.88074 16.2568 9.0904C16.2556 9.30005 16.1734 9.50112 16.0273 9.65156Z" fill="#2AC857"/>
</svg>
