<svg width="22" height="23" viewBox="0 0 22 23" fill="none" xmlns="http://www.w3.org/2000/svg">
<path d="M11 0.9375C8.91094 0.9375 6.86879 1.55698 5.13179 2.7176C3.3948 3.87822 2.04098 5.52786 1.24153 7.45791C0.442077 9.38795 0.232904 11.5117 0.64046 13.5606C1.04802 15.6096 2.054 17.4916 3.53119 18.9688C5.00838 20.446 6.89044 21.452 8.93936 21.8595C10.9883 22.2671 13.1121 22.0579 15.0421 21.2585C16.9721 20.459 18.6218 19.1052 19.7824 17.3682C20.943 15.6312 21.5625 13.5891 21.5625 11.5C21.5571 8.7003 20.4426 6.0168 18.4629 4.03711C16.4832 2.05742 13.7997 0.942869 11 0.9375ZM10.1875 6.625C10.1875 6.40951 10.2731 6.20285 10.4255 6.05048C10.5779 5.8981 10.7845 5.8125 11 5.8125C11.2155 5.8125 11.4222 5.8981 11.5745 6.05048C11.7269 6.20285 11.8125 6.40951 11.8125 6.625V12.3125C11.8125 12.528 11.7269 12.7347 11.5745 12.887C11.4222 13.0394 11.2155 13.125 11 13.125C10.7845 13.125 10.5779 13.0394 10.4255 12.887C10.2731 12.7347 10.1875 12.528 10.1875 12.3125V6.625ZM11 17.1875C10.759 17.1875 10.5233 17.116 10.3229 16.9821C10.1225 16.8482 9.96627 16.6578 9.87403 16.4351C9.78178 16.2124 9.75765 15.9674 9.80467 15.731C9.8517 15.4946 9.96777 15.2774 10.1382 15.107C10.3087 14.9365 10.5258 14.8204 10.7622 14.7734C10.9987 14.7264 11.2437 14.7505 11.4664 14.8428C11.6891 14.935 11.8794 15.0912 12.0134 15.2916C12.1473 15.4921 12.2188 15.7277 12.2188 15.9687C12.2188 16.292 12.0903 16.602 11.8618 16.8305C11.6332 17.0591 11.3232 17.1875 11 17.1875Z" fill="#E6432C"/>
</svg>
