<svg width="15" height="21" viewBox="0 0 15 21" fill="none" xmlns="http://www.w3.org/2000/svg">
<path d="M14.25 5.5875V2.25C14.25 1.85218 14.092 1.47064 13.8107 1.18934C13.5294 0.908035 13.1478 0.75 12.75 0.75H2.25C1.85218 0.75 1.47064 0.908035 1.18934 1.18934C0.908035 1.47064 0.75 1.85218 0.75 2.25V5.625C0.750722 5.85774 0.805257 6.08716 0.909342 6.29533C1.01343 6.5035 1.16424 6.68478 1.35 6.825L6.25312 10.5L1.35 14.175C1.16424 14.3152 1.01343 14.4965 0.909342 14.7047C0.805257 14.9128 0.750722 15.1423 0.75 15.375V18.75C0.75 19.1478 0.908035 19.5294 1.18934 19.8107C1.47064 20.092 1.85218 20.25 2.25 20.25H12.75C13.1478 20.25 13.5294 20.092 13.8107 19.8107C14.092 19.5294 14.25 19.1478 14.25 18.75V15.4125C14.2493 15.1798 14.1947 14.9503 14.0907 14.7422C13.9866 14.534 13.8358 14.3527 13.65 14.2125L8.74688 10.5L13.65 6.7875C13.8358 6.64728 13.9866 6.466 14.0907 6.25783C14.1947 6.04966 14.2493 5.82024 14.25 5.5875ZM12.75 2.25V4.5H2.25V2.25H12.75ZM12.75 18.75H2.25V15.375L7.5 11.4375L12.75 15.4125V18.75Z" fill="#F07D11"/>
</svg>
